<?xml version="1.0" encoding="UTF-8"?>
<svg id="Layer_1" xmlns="http://www.w3.org/2000/svg" version="1.1" viewBox="0 0 128 128">
  <!-- Generator: Adobe Illustrator 29.1.0, SVG Export Plug-In . SVG Version: 2.1.0 Build 142)  -->
  <defs>
    <style>
      .st0 {
        fill: #b9a9d2;
      }
    </style>
  </defs>
  <path class="st0" d="M17.4,4.4c6.3-.7,11.9,2.4,14.8,7.4h63.7c2.9-4.9,8.4-8.1,14.7-7.4s12.7,6.7,13.1,13.8-5.8,15.4-14,15.9l-.5.7-16.7,23.1c.8,1.9,1.3,3.9,1.3,6.1s-.5,4.2-1.3,6.1l.5.7,16.2,22.4.5.7c8.1.5,14.5,7.5,14,15.9s-6,13-13.1,13.9c-6.3.8-11.9-2.4-14.8-7.4h-63.7c-2.9,4.9-8.4,8.1-14.7,7.4s-12.3-6.2-13.1-13,2.4-11.9,7.4-14.8v-63.7c-4.9-2.9-8.1-8.5-7.4-14.8s6.2-12.2,13-13ZM95.8,102l-15.3-21.1-.5-.7c-.5,0-1,0-1.5,0-8.2,0-14.9-6.7-14.9-14.9s6.7-14.9,14.9-14.9,1,0,1.5,0l15.8-21.9c-.1-.2-.3-.4-.4-.6H31.7c-1.3,2.3-3.2,4.2-5.5,5.5v63.7c2.3,1.3,4.2,3.2,5.5,5.5h63.7c.1-.2.3-.4.4-.6h0Z"/>
</svg>